# xmcd
#
# Track frame offsets: 
#        150
#        14211
#        30089
#        46577
#        60302
#        75154
#        92327
#        105810
#        123919
#        139832
#
# Disc length: 2138 seconds
#
# Revision: 0
# Processed by: cddbd v1.5.2PL0 Copyright (c) Steve Scherf et al.
# Submitted via: ExactAudioCopy v0.99pb4
#
DISCID=5f08580a
DTITLE=Courtney Jaye - The Exotic Sounds of Courtney Jaye
DYEAR=2009
DGENRE=Pop
TTITLE0=I Need Love
TTITLE1=Don't Tell a Girl
TTITLE2=Sweet Ride
TTITLE3=Tiger's Eye
TTITLE4=Sometimes Always (feat. Ben Bridwell)
TTITLE5=Maru Maru
TTITLE6=Sunlight
TTITLE7=Box Wine
TTITLE8=Queen of Sabotage
TTITLE9=It's the Checks You Write
EXTD=
EXTT0=
EXTT1=
EXTT2=
EXTT3=
EXTT4=
EXTT5=
EXTT6=
EXTT7=
EXTT8=
EXTT9=
PLAYORDER=
